{
	"asset":{
		"generator":"Khronos glTF Blender I/O v4.1.63",
		"version":"2.0"
	},
	"scene":0,
	"scenes":[
		{
			"name":"Scene",
			"nodes":[
				6
			]
		}
	],
	"nodes":[
		{
			"name":"\u30dc\u30fc\u30f3"
		},
		{
			"name":"\u30dc\u30fc\u30f3.003",
			"rotation":[
				-0.7002449035644531,
				-3.3113414787955264e-11,
				4.953239951532851e-08,
				0.7139027118682861
			],
			"scale":[
				1,
				0.9999998807907104,
				1
			],
			"translation":[
				-2.220446049250313e-15,
				0.5579575300216675,
				1.210719347000122e-08
			]
		},
		{
			"children":[
				1
			],
			"name":"\u30dc\u30fc\u30f3.001",
			"rotation":[
				-0.5048054456710815,
				-0.4951479434967041,
				-0.5048054456710815,
				0.4951479136943817
			]
		},
		{
			"name":"\u30dc\u30fc\u30f3.004",
			"rotation":[
				-0.7071067690849304,
				2.6692537957728746e-08,
				-2.6692537957728746e-08,
				0.7071067690849304
			],
			"translation":[
				0,
				0.5381645560264587,
				0
			]
		},
		{
			"children":[
				3
			],
			"name":"\u30dc\u30fc\u30f3.002",
			"rotation":[
				-0.5,
				0.5,
				0.5,
				0.5
			]
		},
		{
			"mesh":0,
			"name":"\u982d",
			"skin":0
		},
		{
			"children":[
				5,
				0,
				2,
				4
			],
			"name":"\u30a2\u30fc\u30de\u30c1\u30e5\u30a2",
			"scale":[
				1,
				1.8270337581634521,
				1
			],
			"translation":[
				0,
				-0.914682149887085,
				0
			]
		}
	],
	"animations":[
		{
			"channels":[
				{
					"sampler":0,
					"target":{
						"node":0,
						"path":"translation"
					}
				},
				{
					"sampler":1,
					"target":{
						"node":0,
						"path":"rotation"
					}
				},
				{
					"sampler":2,
					"target":{
						"node":0,
						"path":"scale"
					}
				},
				{
					"sampler":3,
					"target":{
						"node":2,
						"path":"translation"
					}
				},
				{
					"sampler":4,
					"target":{
						"node":2,
						"path":"rotation"
					}
				},
				{
					"sampler":5,
					"target":{
						"node":2,
						"path":"scale"
					}
				},
				{
					"sampler":6,
					"target":{
						"node":1,
						"path":"translation"
					}
				},
				{
					"sampler":7,
					"target":{
						"node":1,
						"path":"rotation"
					}
				},
				{
					"sampler":8,
					"target":{
						"node":1,
						"path":"scale"
					}
				},
				{
					"sampler":9,
					"target":{
						"node":4,
						"path":"translation"
					}
				},
				{
					"sampler":10,
					"target":{
						"node":4,
						"path":"rotation"
					}
				},
				{
					"sampler":11,
					"target":{
						"node":4,
						"path":"scale"
					}
				},
				{
					"sampler":12,
					"target":{
						"node":3,
						"path":"translation"
					}
				},
				{
					"sampler":13,
					"target":{
						"node":3,
						"path":"rotation"
					}
				},
				{
					"sampler":14,
					"target":{
						"node":3,
						"path":"scale"
					}
				}
			],
			"name":"\u30a2\u30fc\u30de\u30c1\u30e5\u30a2Action",
			"samplers":[
				{
					"input":7,
					"interpolation":"STEP",
					"output":8
				},
				{
					"input":7,
					"interpolation":"STEP",
					"output":9
				},
				{
					"input":7,
					"interpolation":"STEP",
					"output":10
				},
				{
					"input":7,
					"interpolation":"STEP",
					"output":11
				},
				{
					"input":7,
					"interpolation":"STEP",
					"output":12
				},
				{
					"input":7,
					"interpolation":"STEP",
					"output":13
				},
				{
					"input":7,
					"interpolation":"STEP",
					"output":14
				},
				{
					"input":15,
					"interpolation":"LINEAR",
					"output":16
				},
				{
					"input":7,
					"interpolation":"STEP",
					"output":17
				},
				{
					"input":7,
					"interpolation":"STEP",
					"output":18
				},
				{
					"input":7,
					"interpolation":"STEP",
					"output":19
				},
				{
					"input":7,
					"interpolation":"STEP",
					"output":20
				},
				{
					"input":7,
					"interpolation":"STEP",
					"output":21
				},
				{
					"input":15,
					"interpolation":"LINEAR",
					"output":22
				},
				{
					"input":7,
					"interpolation":"STEP",
					"output":23
				}
			]
		}
	],
	"materials":[
		{
			"doubleSided":true,
			"name":"\u30de\u30c6\u30ea\u30a2\u30eb",
			"pbrMetallicRoughness":{
				"baseColorTexture":{
					"index":0
				},
				"metallicFactor":0,
				"roughnessFactor":0.5
			}
		}
	],
	"meshes":[
		{
			"name":"\u7acb\u65b9\u4f53.001",
			"primitives":[
				{
					"attributes":{
						"POSITION":0,
						"NORMAL":1,
						"TEXCOORD_0":2,
						"JOINTS_0":3,
						"WEIGHTS_0":4
					},
					"indices":5,
					"material":0
				}
			]
		}
	],
	"textures":[
		{
			"sampler":0,
			"source":0
		}
	],
	"images":[
		{
			"mimeType":"image/png",
			"name":"enemy",
			"uri":"enemy.png"
		}
	],
	"skins":[
		{
			"inverseBindMatrices":6,
			"joints":[
				0,
				2,
				1,
				4,
				3
			],
			"name":"\u30a2\u30fc\u30de\u30c1\u30e5\u30a2"
		}
	],
	"accessors":[
		{
			"bufferView":0,
			"componentType":5126,
			"count":4632,
			"max":[
				0.9999999403953552,
				1.9439411163330078,
				1.2402362823486328
			],
			"min":[
				-0.9999999403953552,
				-0.9971266388893127,
				-0.9619107842445374
			],
			"type":"VEC3"
		},
		{
			"bufferView":1,
			"componentType":5126,
			"count":4632,
			"type":"VEC3"
		},
		{
			"bufferView":2,
			"componentType":5126,
			"count":4632,
			"type":"VEC2"
		},
		{
			"bufferView":3,
			"componentType":5121,
			"count":4632,
			"type":"VEC4"
		},
		{
			"bufferView":4,
			"componentType":5126,
			"count":4632,
			"type":"VEC4"
		},
		{
			"bufferView":5,
			"componentType":5123,
			"count":26292,
			"type":"SCALAR"
		},
		{
			"bufferView":6,
			"componentType":5126,
			"count":5,
			"type":"MAT4"
		},
		{
			"bufferView":7,
			"componentType":5126,
			"count":2,
			"max":[
				1.6666666666666667
			],
			"min":[
				0
			],
			"type":"SCALAR"
		},
		{
			"bufferView":8,
			"componentType":5126,
			"count":2,
			"type":"VEC3"
		},
		{
			"bufferView":9,
			"componentType":5126,
			"count":2,
			"type":"VEC4"
		},
		{
			"bufferView":10,
			"componentType":5126,
			"count":2,
			"type":"VEC3"
		},
		{
			"bufferView":11,
			"componentType":5126,
			"count":2,
			"type":"VEC3"
		},
		{
			"bufferView":12,
			"componentType":5126,
			"count":2,
			"type":"VEC4"
		},
		{
			"bufferView":13,
			"componentType":5126,
			"count":2,
			"type":"VEC3"
		},
		{
			"bufferView":14,
			"componentType":5126,
			"count":2,
			"type":"VEC3"
		},
		{
			"bufferView":15,
			"componentType":5126,
			"count":41,
			"max":[
				1.6666666666666667
			],
			"min":[
				0
			],
			"type":"SCALAR"
		},
		{
			"bufferView":16,
			"componentType":5126,
			"count":41,
			"type":"VEC4"
		},
		{
			"bufferView":17,
			"componentType":5126,
			"count":2,
			"type":"VEC3"
		},
		{
			"bufferView":18,
			"componentType":5126,
			"count":2,
			"type":"VEC3"
		},
		{
			"bufferView":19,
			"componentType":5126,
			"count":2,
			"type":"VEC4"
		},
		{
			"bufferView":20,
			"componentType":5126,
			"count":2,
			"type":"VEC3"
		},
		{
			"bufferView":21,
			"componentType":5126,
			"count":2,
			"type":"VEC3"
		},
		{
			"bufferView":22,
			"componentType":5126,
			"count":41,
			"type":"VEC4"
		},
		{
			"bufferView":23,
			"componentType":5126,
			"count":2,
			"type":"VEC3"
		}
	],
	"bufferViews":[
		{
			"buffer":0,
			"byteLength":55584,
			"byteOffset":0,
			"target":34962
		},
		{
			"buffer":0,
			"byteLength":55584,
			"byteOffset":55584,
			"target":34962
		},
		{
			"buffer":0,
			"byteLength":37056,
			"byteOffset":111168,
			"target":34962
		},
		{
			"buffer":0,
			"byteLength":18528,
			"byteOffset":148224,
			"target":34962
		},
		{
			"buffer":0,
			"byteLength":74112,
			"byteOffset":166752,
			"target":34962
		},
		{
			"buffer":0,
			"byteLength":52584,
			"byteOffset":240864,
			"target":34963
		},
		{
			"buffer":0,
			"byteLength":320,
			"byteOffset":293448
		},
		{
			"buffer":0,
			"byteLength":8,
			"byteOffset":293768
		},
		{
			"buffer":0,
			"byteLength":24,
			"byteOffset":293776
		},
		{
			"buffer":0,
			"byteLength":32,
			"byteOffset":293800
		},
		{
			"buffer":0,
			"byteLength":24,
			"byteOffset":293832
		},
		{
			"buffer":0,
			"byteLength":24,
			"byteOffset":293856
		},
		{
			"buffer":0,
			"byteLength":32,
			"byteOffset":293880
		},
		{
			"buffer":0,
			"byteLength":24,
			"byteOffset":293912
		},
		{
			"buffer":0,
			"byteLength":24,
			"byteOffset":293936
		},
		{
			"buffer":0,
			"byteLength":164,
			"byteOffset":293960
		},
		{
			"buffer":0,
			"byteLength":656,
			"byteOffset":294124
		},
		{
			"buffer":0,
			"byteLength":24,
			"byteOffset":294780
		},
		{
			"buffer":0,
			"byteLength":24,
			"byteOffset":294804
		},
		{
			"buffer":0,
			"byteLength":32,
			"byteOffset":294828
		},
		{
			"buffer":0,
			"byteLength":24,
			"byteOffset":294860
		},
		{
			"buffer":0,
			"byteLength":24,
			"byteOffset":294884
		},
		{
			"buffer":0,
			"byteLength":656,
			"byteOffset":294908
		},
		{
			"buffer":0,
			"byteLength":24,
			"byteOffset":295564
		}
	],
	"samplers":[
		{
			"magFilter":9729,
			"minFilter":9987
		}
	],
	"buffers":[
		{
			"byteLength":295588,
			"uri":"enemy.bin"
		}
	]
}
