{
	"asset":{
		"generator":"Khronos glTF Blender I/O v4.1.63",
		"version":"2.0"
	},
	"scene":0,
	"scenes":[
		{
			"name":"Scene",
			"nodes":[
				13
			]
		}
	],
	"nodes":[
		{
			"name":"\u30dc\u30fc\u30f3.003",
			"scale":[
				1,
				0.9999999403953552,
				1
			],
			"translation":[
				0,
				1.4779386520385742,
				0
			]
		},
		{
			"children":[
				0
			],
			"name":"\u30dc\u30fc\u30f3.002",
			"rotation":[
				0,
				-1.1920927533992653e-07,
				0,
				1
			],
			"scale":[
				1,
				0.9999999403953552,
				1
			],
			"translation":[
				0,
				1.5087292194366455,
				0
			]
		},
		{
			"children":[
				1
			],
			"name":"\u30dc\u30fc\u30f3.001",
			"rotation":[
				0,
				1.1920927533992653e-07,
				0,
				1
			],
			"scale":[
				1,
				0.9999998807907104,
				1
			],
			"translation":[
				0,
				0.6767008900642395,
				1.1920928955078125e-07
			]
		},
		{
			"children":[
				2
			],
			"name":"\u30dc\u30fc\u30f3",
			"translation":[
				0,
				1.4901161193847656e-08,
				1.1920928955078125e-07
			]
		},
		{
			"name":"\u30dc\u30fc\u30f3.007",
			"rotation":[
				0.012110958807170391,
				1.7944707053629827e-07,
				5.088200083491756e-09,
				0.9999266862869263
			],
			"scale":[
				1,
				0.9999999403953552,
				0.9999997615814209
			],
			"translation":[
				9.682665336185892e-08,
				1.4988480806350708,
				1.4035322237759829e-08
			]
		},
		{
			"children":[
				4
			],
			"name":"\u30dc\u30fc\u30f3.006",
			"rotation":[
				-0.013662660494446754,
				-1.9459744748928642e-07,
				7.3892132412822775e-09,
				0.9999066591262817
			],
			"scale":[
				1,
				1,
				0.9999999403953552
			],
			"translation":[
				9.425370706139802e-08,
				1.5839738845825195,
				1.4858287045171892e-08
			]
		},
		{
			"children":[
				5
			],
			"name":"\u30dc\u30fc\u30f3.005",
			"rotation":[
				0.015239229425787926,
				1.79684548129444e-07,
				-1.4693624095230007e-08,
				0.9998838901519775
			],
			"scale":[
				1,
				0.9999999403953552,
				0.9999998807907104
			],
			"translation":[
				4.668305209065693e-08,
				0.6283805966377258,
				1.2806793847630615e-08
			]
		},
		{
			"children":[
				6
			],
			"name":"\u30dc\u30fc\u30f3.004",
			"rotation":[
				-0.6153241991996765,
				0.3483906090259552,
				0.6153243184089661,
				0.3483907878398895
			],
			"scale":[
				0.9999998807907104,
				1,
				1
			],
			"translation":[
				0,
				1.4901161193847656e-08,
				1.1920928955078125e-07
			]
		},
		{
			"name":"\u30dc\u30fc\u30f3.011",
			"rotation":[
				-0.011342115700244904,
				4.5542250859398337e-08,
				1.269947258464299e-09,
				0.9999356865882874
			],
			"translation":[
				5.191878926780191e-09,
				1.5486910343170166,
				-2.0559232893901935e-07
			]
		},
		{
			"children":[
				8
			],
			"name":"\u30dc\u30fc\u30f3.010",
			"rotation":[
				0.0027471662033349276,
				-4.489570670784815e-08,
				4.310634071913455e-09,
				0.9999962449073792
			],
			"scale":[
				1,
				0.9999999403953552,
				1
			],
			"translation":[
				5.998757046654646e-09,
				1.4894404411315918,
				8.161826769992331e-08
			]
		},
		{
			"children":[
				9
			],
			"name":"\u30dc\u30fc\u30f3.009",
			"rotation":[
				0.008644582703709602,
				2.926144304638001e-08,
				1.5453539559118212e-09,
				0.9999626874923706
			],
			"translation":[
				1.5424170385358593e-08,
				0.66270911693573,
				2.180260594286665e-08
			]
		},
		{
			"children":[
				10
			],
			"name":"\u30dc\u30fc\u30f3.008",
			"rotation":[
				-0.6146291494369507,
				-0.3496157228946686,
				-0.6146289706230164,
				0.3496157228946686
			],
			"scale":[
				1,
				0.9999999403953552,
				0.9999999403953552
			],
			"translation":[
				0,
				1.4901161193847656e-08,
				1.1920928955078125e-07
			]
		},
		{
			"mesh":0,
			"name":"\u5186\u9310.003",
			"skin":0
		},
		{
			"children":[
				12,
				3,
				7,
				11
			],
			"name":"\u30a2\u30fc\u30de\u30c1\u30e5\u30a2",
			"scale":[
				0.550000011920929,
				0.550000011920929,
				0.550000011920929
			],
			"translation":[
				0,
				-0.10745370388031006,
				-0.8039090633392334
			]
		}
	],
	"animations":[
		{
			"channels":[
				{
					"sampler":0,
					"target":{
						"node":3,
						"path":"translation"
					}
				},
				{
					"sampler":1,
					"target":{
						"node":3,
						"path":"rotation"
					}
				},
				{
					"sampler":2,
					"target":{
						"node":3,
						"path":"scale"
					}
				},
				{
					"sampler":3,
					"target":{
						"node":2,
						"path":"translation"
					}
				},
				{
					"sampler":4,
					"target":{
						"node":2,
						"path":"rotation"
					}
				},
				{
					"sampler":5,
					"target":{
						"node":2,
						"path":"scale"
					}
				},
				{
					"sampler":6,
					"target":{
						"node":1,
						"path":"translation"
					}
				},
				{
					"sampler":7,
					"target":{
						"node":1,
						"path":"rotation"
					}
				},
				{
					"sampler":8,
					"target":{
						"node":1,
						"path":"scale"
					}
				},
				{
					"sampler":9,
					"target":{
						"node":0,
						"path":"translation"
					}
				},
				{
					"sampler":10,
					"target":{
						"node":0,
						"path":"rotation"
					}
				},
				{
					"sampler":11,
					"target":{
						"node":0,
						"path":"scale"
					}
				},
				{
					"sampler":12,
					"target":{
						"node":7,
						"path":"translation"
					}
				},
				{
					"sampler":13,
					"target":{
						"node":7,
						"path":"rotation"
					}
				},
				{
					"sampler":14,
					"target":{
						"node":7,
						"path":"scale"
					}
				},
				{
					"sampler":15,
					"target":{
						"node":6,
						"path":"translation"
					}
				},
				{
					"sampler":16,
					"target":{
						"node":6,
						"path":"rotation"
					}
				},
				{
					"sampler":17,
					"target":{
						"node":6,
						"path":"scale"
					}
				},
				{
					"sampler":18,
					"target":{
						"node":5,
						"path":"translation"
					}
				},
				{
					"sampler":19,
					"target":{
						"node":5,
						"path":"rotation"
					}
				},
				{
					"sampler":20,
					"target":{
						"node":5,
						"path":"scale"
					}
				},
				{
					"sampler":21,
					"target":{
						"node":4,
						"path":"translation"
					}
				},
				{
					"sampler":22,
					"target":{
						"node":4,
						"path":"rotation"
					}
				},
				{
					"sampler":23,
					"target":{
						"node":4,
						"path":"scale"
					}
				},
				{
					"sampler":24,
					"target":{
						"node":11,
						"path":"translation"
					}
				},
				{
					"sampler":25,
					"target":{
						"node":11,
						"path":"rotation"
					}
				},
				{
					"sampler":26,
					"target":{
						"node":11,
						"path":"scale"
					}
				},
				{
					"sampler":27,
					"target":{
						"node":10,
						"path":"translation"
					}
				},
				{
					"sampler":28,
					"target":{
						"node":10,
						"path":"rotation"
					}
				},
				{
					"sampler":29,
					"target":{
						"node":10,
						"path":"scale"
					}
				},
				{
					"sampler":30,
					"target":{
						"node":9,
						"path":"translation"
					}
				},
				{
					"sampler":31,
					"target":{
						"node":9,
						"path":"rotation"
					}
				},
				{
					"sampler":32,
					"target":{
						"node":9,
						"path":"scale"
					}
				},
				{
					"sampler":33,
					"target":{
						"node":8,
						"path":"translation"
					}
				},
				{
					"sampler":34,
					"target":{
						"node":8,
						"path":"rotation"
					}
				},
				{
					"sampler":35,
					"target":{
						"node":8,
						"path":"scale"
					}
				}
			],
			"name":"\u30a2\u30fc\u30de\u30c1\u30e5\u30a2Action.002",
			"samplers":[
				{
					"input":7,
					"interpolation":"STEP",
					"output":8
				},
				{
					"input":7,
					"interpolation":"STEP",
					"output":9
				},
				{
					"input":7,
					"interpolation":"STEP",
					"output":10
				},
				{
					"input":7,
					"interpolation":"STEP",
					"output":11
				},
				{
					"input":12,
					"interpolation":"LINEAR",
					"output":13
				},
				{
					"input":7,
					"interpolation":"STEP",
					"output":14
				},
				{
					"input":7,
					"interpolation":"STEP",
					"output":15
				},
				{
					"input":12,
					"interpolation":"LINEAR",
					"output":16
				},
				{
					"input":7,
					"interpolation":"STEP",
					"output":17
				},
				{
					"input":7,
					"interpolation":"STEP",
					"output":18
				},
				{
					"input":12,
					"interpolation":"LINEAR",
					"output":19
				},
				{
					"input":7,
					"interpolation":"STEP",
					"output":20
				},
				{
					"input":7,
					"interpolation":"STEP",
					"output":21
				},
				{
					"input":7,
					"interpolation":"STEP",
					"output":22
				},
				{
					"input":7,
					"interpolation":"STEP",
					"output":23
				},
				{
					"input":7,
					"interpolation":"STEP",
					"output":24
				},
				{
					"input":12,
					"interpolation":"LINEAR",
					"output":25
				},
				{
					"input":7,
					"interpolation":"STEP",
					"output":26
				},
				{
					"input":7,
					"interpolation":"STEP",
					"output":27
				},
				{
					"input":12,
					"interpolation":"LINEAR",
					"output":28
				},
				{
					"input":7,
					"interpolation":"STEP",
					"output":29
				},
				{
					"input":7,
					"interpolation":"STEP",
					"output":30
				},
				{
					"input":12,
					"interpolation":"LINEAR",
					"output":31
				},
				{
					"input":7,
					"interpolation":"STEP",
					"output":32
				},
				{
					"input":7,
					"interpolation":"STEP",
					"output":33
				},
				{
					"input":7,
					"interpolation":"STEP",
					"output":34
				},
				{
					"input":7,
					"interpolation":"STEP",
					"output":35
				},
				{
					"input":7,
					"interpolation":"STEP",
					"output":36
				},
				{
					"input":12,
					"interpolation":"LINEAR",
					"output":37
				},
				{
					"input":7,
					"interpolation":"STEP",
					"output":38
				},
				{
					"input":7,
					"interpolation":"STEP",
					"output":39
				},
				{
					"input":12,
					"interpolation":"LINEAR",
					"output":40
				},
				{
					"input":7,
					"interpolation":"STEP",
					"output":41
				},
				{
					"input":7,
					"interpolation":"STEP",
					"output":42
				},
				{
					"input":12,
					"interpolation":"LINEAR",
					"output":43
				},
				{
					"input":7,
					"interpolation":"STEP",
					"output":44
				}
			]
		},
		{
			"channels":[
				{
					"sampler":0,
					"target":{
						"node":12,
						"path":"translation"
					}
				},
				{
					"sampler":1,
					"target":{
						"node":12,
						"path":"rotation"
					}
				},
				{
					"sampler":2,
					"target":{
						"node":12,
						"path":"scale"
					}
				}
			],
			"name":"\u5186\u9310.003Action",
			"samplers":[
				{
					"input":45,
					"interpolation":"LINEAR",
					"output":46
				},
				{
					"input":45,
					"interpolation":"LINEAR",
					"output":47
				},
				{
					"input":45,
					"interpolation":"LINEAR",
					"output":48
				}
			]
		}
	],
	"materials":[
		{
			"doubleSided":true,
			"name":"\u30de\u30c6\u30ea\u30a2\u30eb.001",
			"pbrMetallicRoughness":{
				"baseColorTexture":{
					"index":0
				},
				"metallicFactor":0,
				"roughnessFactor":0.5
			}
		}
	],
	"meshes":[
		{
			"name":"\u5186\u9310.003",
			"primitives":[
				{
					"attributes":{
						"POSITION":0,
						"NORMAL":1,
						"TEXCOORD_0":2,
						"JOINTS_0":3,
						"WEIGHTS_0":4
					},
					"indices":5,
					"material":0
				}
			]
		}
	],
	"textures":[
		{
			"sampler":0,
			"source":0
		}
	],
	"images":[
		{
			"mimeType":"image/png",
			"name":"arm",
			"uri":"arm.png"
		}
	],
	"skins":[
		{
			"inverseBindMatrices":6,
			"joints":[
				3,
				2,
				1,
				0,
				7,
				6,
				5,
				4,
				11,
				10,
				9,
				8
			],
			"name":"\u30a2\u30fc\u30de\u30c1\u30e5\u30a2"
		}
	],
	"accessors":[
		{
			"bufferView":0,
			"componentType":5126,
			"count":6372,
			"max":[
				2.8042633533477783,
				3.134711742401123,
				-0.5905335545539856
			],
			"min":[
				-2.8042619228363037,
				-1.7650870084762573,
				-1.0492267608642578
			],
			"type":"VEC3"
		},
		{
			"bufferView":1,
			"componentType":5126,
			"count":6372,
			"type":"VEC3"
		},
		{
			"bufferView":2,
			"componentType":5126,
			"count":6372,
			"type":"VEC2"
		},
		{
			"bufferView":3,
			"componentType":5121,
			"count":6372,
			"type":"VEC4"
		},
		{
			"bufferView":4,
			"componentType":5126,
			"count":6372,
			"type":"VEC4"
		},
		{
			"bufferView":5,
			"componentType":5123,
			"count":24912,
			"type":"SCALAR"
		},
		{
			"bufferView":6,
			"componentType":5126,
			"count":12,
			"type":"MAT4"
		},
		{
			"bufferView":7,
			"componentType":5126,
			"count":2,
			"max":[
				4.166666666666667
			],
			"min":[
				0.041666666666666664
			],
			"type":"SCALAR"
		},
		{
			"bufferView":8,
			"componentType":5126,
			"count":2,
			"type":"VEC3"
		},
		{
			"bufferView":9,
			"componentType":5126,
			"count":2,
			"type":"VEC4"
		},
		{
			"bufferView":10,
			"componentType":5126,
			"count":2,
			"type":"VEC3"
		},
		{
			"bufferView":11,
			"componentType":5126,
			"count":2,
			"type":"VEC3"
		},
		{
			"bufferView":12,
			"componentType":5126,
			"count":100,
			"max":[
				4.166666666666667
			],
			"min":[
				0.041666666666666664
			],
			"type":"SCALAR"
		},
		{
			"bufferView":13,
			"componentType":5126,
			"count":100,
			"type":"VEC4"
		},
		{
			"bufferView":14,
			"componentType":5126,
			"count":2,
			"type":"VEC3"
		},
		{
			"bufferView":15,
			"componentType":5126,
			"count":2,
			"type":"VEC3"
		},
		{
			"bufferView":16,
			"componentType":5126,
			"count":100,
			"type":"VEC4"
		},
		{
			"bufferView":17,
			"componentType":5126,
			"count":2,
			"type":"VEC3"
		},
		{
			"bufferView":18,
			"componentType":5126,
			"count":2,
			"type":"VEC3"
		},
		{
			"bufferView":19,
			"componentType":5126,
			"count":100,
			"type":"VEC4"
		},
		{
			"bufferView":20,
			"componentType":5126,
			"count":2,
			"type":"VEC3"
		},
		{
			"bufferView":21,
			"componentType":5126,
			"count":2,
			"type":"VEC3"
		},
		{
			"bufferView":22,
			"componentType":5126,
			"count":2,
			"type":"VEC4"
		},
		{
			"bufferView":23,
			"componentType":5126,
			"count":2,
			"type":"VEC3"
		},
		{
			"bufferView":24,
			"componentType":5126,
			"count":2,
			"type":"VEC3"
		},
		{
			"bufferView":25,
			"componentType":5126,
			"count":100,
			"type":"VEC4"
		},
		{
			"bufferView":26,
			"componentType":5126,
			"count":2,
			"type":"VEC3"
		},
		{
			"bufferView":27,
			"componentType":5126,
			"count":2,
			"type":"VEC3"
		},
		{
			"bufferView":28,
			"componentType":5126,
			"count":100,
			"type":"VEC4"
		},
		{
			"bufferView":29,
			"componentType":5126,
			"count":2,
			"type":"VEC3"
		},
		{
			"bufferView":30,
			"componentType":5126,
			"count":2,
			"type":"VEC3"
		},
		{
			"bufferView":31,
			"componentType":5126,
			"count":100,
			"type":"VEC4"
		},
		{
			"bufferView":32,
			"componentType":5126,
			"count":2,
			"type":"VEC3"
		},
		{
			"bufferView":33,
			"componentType":5126,
			"count":2,
			"type":"VEC3"
		},
		{
			"bufferView":34,
			"componentType":5126,
			"count":2,
			"type":"VEC4"
		},
		{
			"bufferView":35,
			"componentType":5126,
			"count":2,
			"type":"VEC3"
		},
		{
			"bufferView":36,
			"componentType":5126,
			"count":2,
			"type":"VEC3"
		},
		{
			"bufferView":37,
			"componentType":5126,
			"count":100,
			"type":"VEC4"
		},
		{
			"bufferView":38,
			"componentType":5126,
			"count":2,
			"type":"VEC3"
		},
		{
			"bufferView":39,
			"componentType":5126,
			"count":2,
			"type":"VEC3"
		},
		{
			"bufferView":40,
			"componentType":5126,
			"count":100,
			"type":"VEC4"
		},
		{
			"bufferView":41,
			"componentType":5126,
			"count":2,
			"type":"VEC3"
		},
		{
			"bufferView":42,
			"componentType":5126,
			"count":2,
			"type":"VEC3"
		},
		{
			"bufferView":43,
			"componentType":5126,
			"count":100,
			"type":"VEC4"
		},
		{
			"bufferView":44,
			"componentType":5126,
			"count":2,
			"type":"VEC3"
		},
		{
			"bufferView":45,
			"componentType":5126,
			"count":1,
			"max":[
				0.041666666666666664
			],
			"min":[
				0.041666666666666664
			],
			"type":"SCALAR"
		},
		{
			"bufferView":46,
			"componentType":5126,
			"count":1,
			"type":"VEC3"
		},
		{
			"bufferView":47,
			"componentType":5126,
			"count":1,
			"type":"VEC4"
		},
		{
			"bufferView":48,
			"componentType":5126,
			"count":1,
			"type":"VEC3"
		}
	],
	"bufferViews":[
		{
			"buffer":0,
			"byteLength":76464,
			"byteOffset":0,
			"target":34962
		},
		{
			"buffer":0,
			"byteLength":76464,
			"byteOffset":76464,
			"target":34962
		},
		{
			"buffer":0,
			"byteLength":50976,
			"byteOffset":152928,
			"target":34962
		},
		{
			"buffer":0,
			"byteLength":25488,
			"byteOffset":203904,
			"target":34962
		},
		{
			"buffer":0,
			"byteLength":101952,
			"byteOffset":229392,
			"target":34962
		},
		{
			"buffer":0,
			"byteLength":49824,
			"byteOffset":331344,
			"target":34963
		},
		{
			"buffer":0,
			"byteLength":768,
			"byteOffset":381168
		},
		{
			"buffer":0,
			"byteLength":8,
			"byteOffset":381936
		},
		{
			"buffer":0,
			"byteLength":24,
			"byteOffset":381944
		},
		{
			"buffer":0,
			"byteLength":32,
			"byteOffset":381968
		},
		{
			"buffer":0,
			"byteLength":24,
			"byteOffset":382000
		},
		{
			"buffer":0,
			"byteLength":24,
			"byteOffset":382024
		},
		{
			"buffer":0,
			"byteLength":400,
			"byteOffset":382048
		},
		{
			"buffer":0,
			"byteLength":1600,
			"byteOffset":382448
		},
		{
			"buffer":0,
			"byteLength":24,
			"byteOffset":384048
		},
		{
			"buffer":0,
			"byteLength":24,
			"byteOffset":384072
		},
		{
			"buffer":0,
			"byteLength":1600,
			"byteOffset":384096
		},
		{
			"buffer":0,
			"byteLength":24,
			"byteOffset":385696
		},
		{
			"buffer":0,
			"byteLength":24,
			"byteOffset":385720
		},
		{
			"buffer":0,
			"byteLength":1600,
			"byteOffset":385744
		},
		{
			"buffer":0,
			"byteLength":24,
			"byteOffset":387344
		},
		{
			"buffer":0,
			"byteLength":24,
			"byteOffset":387368
		},
		{
			"buffer":0,
			"byteLength":32,
			"byteOffset":387392
		},
		{
			"buffer":0,
			"byteLength":24,
			"byteOffset":387424
		},
		{
			"buffer":0,
			"byteLength":24,
			"byteOffset":387448
		},
		{
			"buffer":0,
			"byteLength":1600,
			"byteOffset":387472
		},
		{
			"buffer":0,
			"byteLength":24,
			"byteOffset":389072
		},
		{
			"buffer":0,
			"byteLength":24,
			"byteOffset":389096
		},
		{
			"buffer":0,
			"byteLength":1600,
			"byteOffset":389120
		},
		{
			"buffer":0,
			"byteLength":24,
			"byteOffset":390720
		},
		{
			"buffer":0,
			"byteLength":24,
			"byteOffset":390744
		},
		{
			"buffer":0,
			"byteLength":1600,
			"byteOffset":390768
		},
		{
			"buffer":0,
			"byteLength":24,
			"byteOffset":392368
		},
		{
			"buffer":0,
			"byteLength":24,
			"byteOffset":392392
		},
		{
			"buffer":0,
			"byteLength":32,
			"byteOffset":392416
		},
		{
			"buffer":0,
			"byteLength":24,
			"byteOffset":392448
		},
		{
			"buffer":0,
			"byteLength":24,
			"byteOffset":392472
		},
		{
			"buffer":0,
			"byteLength":1600,
			"byteOffset":392496
		},
		{
			"buffer":0,
			"byteLength":24,
			"byteOffset":394096
		},
		{
			"buffer":0,
			"byteLength":24,
			"byteOffset":394120
		},
		{
			"buffer":0,
			"byteLength":1600,
			"byteOffset":394144
		},
		{
			"buffer":0,
			"byteLength":24,
			"byteOffset":395744
		},
		{
			"buffer":0,
			"byteLength":24,
			"byteOffset":395768
		},
		{
			"buffer":0,
			"byteLength":1600,
			"byteOffset":395792
		},
		{
			"buffer":0,
			"byteLength":24,
			"byteOffset":397392
		},
		{
			"buffer":0,
			"byteLength":4,
			"byteOffset":397416
		},
		{
			"buffer":0,
			"byteLength":12,
			"byteOffset":397420
		},
		{
			"buffer":0,
			"byteLength":16,
			"byteOffset":397432
		},
		{
			"buffer":0,
			"byteLength":12,
			"byteOffset":397448
		}
	],
	"samplers":[
		{
			"magFilter":9729,
			"minFilter":9987
		}
	],
	"buffers":[
		{
			"byteLength":397460,
			"uri":"PlayerArm.bin"
		}
	]
}
